HIERARCHY
ROOT Hips
{
	OFFSET 0.000000 0.000000 0.000000
	CHANNELS 6 Xposition Yposition Zposition Zrotation Yrotation Xrotation 
	JOINT LHipJoint
	{
		OFFSET 0.000000 0.000000 0.000000
		CHANNELS 3 Zrotation Yrotation Xrotation
		JOINT LeftUpLeg
		{
			OFFSET 1.363060 -1.794630 0.839290
			CHANNELS 3 Zrotation Yrotation Xrotation
			JOINT LeftLeg
			{
				OFFSET 2.448110 -6.726130 0.000000
				CHANNELS 3 Zrotation Yrotation Xrotation
				JOINT LeftFoot
				{
					OFFSET 2.562200 -7.039590 0.000000
					CHANNELS 3 Zrotation Yrotation Xrotation
					JOINT LeftToeBase
					{
						OFFSET 0.157640 -0.433110 2.322550
						CHANNELS 3 Zrotation Yrotation Xrotation
						End Site
						{
							OFFSET 0.000000 0.000000 0.000000
						}
					}
				}
			}
		}
	}
	JOINT RHipJoint
	{
		OFFSET 0.000000 0.000000 0.000000
		CHANNELS 3 Zrotation Yrotation Xrotation
		JOINT RightUpLeg
		{
			OFFSET -1.305520 -1.794630 0.839290
			CHANNELS 3 Zrotation Yrotation Xrotation
			JOINT RightLeg
			{
				OFFSET -2.542530 -6.985550 0.000000
				CHANNELS 3 Zrotation Yrotation Xrotation
				JOINT RightFoot
				{
					OFFSET -2.568260 -7.056230 0.000000
					CHANNELS 3 Zrotation Yrotation Xrotation
					JOINT RightToeBase
					{
						OFFSET -0.164730 -0.452590 2.363150
						CHANNELS 3 Zrotation Yrotation Xrotation
						End Site
						{
							OFFSET 0.000000 0.000000 0.000000
						}
					}
				}
			}
		}
	}
	JOINT LowerBack
	{
		OFFSET 0.000000 0.000000 0.000000
		CHANNELS 3 Zrotation Yrotation Xrotation
		JOINT Spine
		{
			OFFSET 0.028270 2.035590 -0.193380
			CHANNELS 3 Zrotation Yrotation Xrotation
			JOINT Spine1
			{
				OFFSET 0.056720 2.048850 -0.042750
				CHANNELS 3 Zrotation Yrotation Xrotation
				JOINT Neck
				{
					OFFSET 0.000000 0.000000 0.000000
					CHANNELS 3 Zrotation Yrotation Xrotation
					JOINT Neck1
					{
						OFFSET -0.054170 1.746240 0.172020
						CHANNELS 3 Zrotation Yrotation Xrotation
						JOINT Head
						{
							OFFSET 0.104070 1.761360 -0.123970
							CHANNELS 3 Zrotation Yrotation Xrotation
							End Site
							{
								OFFSET 0.000000 0.000000 0.000000
							}
						}
					}
				}
				JOINT LeftShoulder
				{
					OFFSET 0.000000 0.000000 0.000000
					CHANNELS 3 Zrotation Yrotation Xrotation
					JOINT LeftArm
					{
						OFFSET 3.362410 1.200890 -0.311210
						CHANNELS 3 Zrotation Yrotation Xrotation
						JOINT LeftForeArm
						{
							OFFSET 4.983000 -0.000000 -0.000000
							CHANNELS 3 Zrotation Yrotation Xrotation
							JOINT LeftHand
							{
								OFFSET 3.483560 -0.000000 -0.000000
								CHANNELS 3 Zrotation Yrotation Xrotation
								JOINT LeftFingerBase
								{
									OFFSET 0.000000 0.000000 0.000000
									CHANNELS 3 Zrotation Yrotation Xrotation
									JOINT LeftHandIndex1
									{
										OFFSET 0.715260 -0.000000 -0.000000
										CHANNELS 3 Zrotation Yrotation Xrotation
										End Site
										{
											OFFSET 0.000000 0.000000 0.000000
										}
									}
								}
								JOINT LThumb
								{
									OFFSET 0.000000 0.000000 0.000000
									CHANNELS 3 Zrotation Yrotation Xrotation
									End Site
									{
										OFFSET 0.000000 0.000000 0.000000
									}
								}
							}
						}
					}
				}
				JOINT RightShoulder
				{
					OFFSET 0.000000 0.000000 0.000000
					CHANNELS 3 Zrotation Yrotation Xrotation
					JOINT RightArm
					{
						OFFSET -3.136600 1.374050 -0.404650
						CHANNELS 3 Zrotation Yrotation Xrotation
						JOINT RightForeArm
						{
							OFFSET -5.241900 -0.000000 -0.000000
							CHANNELS 3 Zrotation Yrotation Xrotation
							JOINT RightHand
							{
								OFFSET -3.444170 -0.000000 -0.000000
								CHANNELS 3 Zrotation Yrotation Xrotation
								JOINT RightFingerBase
								{
									OFFSET 0.000000 0.000000 0.000000
									CHANNELS 3 Zrotation Yrotation Xrotation
									JOINT RightHandIndex1
									{
										OFFSET -0.622530 -0.000000 -0.000000
										CHANNELS 3 Zrotation Yrotation Xrotation
										End Site
										{
											OFFSET 0.000000 0.000000 0.000000
										}
									}
								}
								JOINT RThumb
								{
									OFFSET 0.000000 0.000000 0.000000
									CHANNELS 3 Zrotation Yrotation Xrotation
									End Site
									{
										OFFSET 0.000000 0.000000 0.000000
									}
								}
							}
						}
					}
				}
			}
		}
	}
}
MOTION
Frames: 10
Frame Time: 0.008333
-1.698738 15.492566 -1.237462 23.244832 78.465342 46.889161 -12.181345 2.121525 -6.245894 -0.579442 16.455386 -19.957809 -1.311427 4.228392 55.399208 -0.248033 -8.245491 -0.723500 -0.593700 -0.000000 -75.922501 7.912097 1.906788 -4.722869 22.871698 -6.480940 -65.605479 1.537096 -5.377819 58.819549 -4.936574 -15.212050 -27.983839 -175.068299 0.000000 -20.723600 7.495356 -2.991883 14.343407 0.633739 -2.852562 -0.642363 -5.997320 -2.807239 -2.929615 7.093019 -8.778543 -5.133264 -3.733001 -0.271635 0.214258 0.000000 0.000000 0.000000 7.377164 0.744318 1.733950 -53.081137 1.252219 -1.911510 -178.691509 -67.897872 179.965116 4.324795 2.256485 0.073317 -0.155868 0.418991 0.000000 0.000000 0.000000 0.000000 0.000000 0.000000 0.000000 9.367785 -4.627619 0.813341 73.892241 -12.850868 7.674745 179.910422 82.603304 179.954390 -7.389630 5.095458 -0.359357 0.074987 -0.425823 -0.000000 0.000000 0.000000 0.000000 0.000000 0.000000 0.000000 
-1.527055 15.459449 -1.185417 21.726329 78.200842 44.926397 -12.203734 2.199327 -6.124733 -0.073269 15.585375 -19.319708 -1.090810 4.313361 56.429915 -0.191410 -8.051934 0.415467 -0.769400 0.000000 -73.867600 7.983728 1.957077 -4.936552 22.792233 -6.537610 -64.697753 1.409172 -5.413892 60.210732 -4.984761 -15.442272 -29.034483 -174.640900 0.000000 -20.443000 7.836177 -3.044757 14.487954 0.712750 -2.897060 -0.653299 -5.961143 -2.857589 -3.039774 7.215764 -8.338813 -4.943077 -3.799950 -0.277565 0.267542 0.000000 0.000000 0.000000 7.338002 0.435871 1.780258 -54.531480 3.279512 -1.210744 -178.752714 -68.254582 179.972028 3.636142 1.937228 0.051301 -0.126030 0.415020 0.000000 0.000000 0.000000 0.000000 0.000000 0.000000 0.000000 9.813763 -4.251785 0.800584 73.452421 -11.414734 7.493342 179.921136 83.689521 179.951707 -8.058094 4.539753 -0.352051 0.091826 -0.414022 -0.000000 0.000000 0.000000 0.000000 0.000000 0.000000 0.000000 
-1.356871 15.429918 -1.130909 20.464025 77.920832 43.279521 -12.208333 2.270473 -5.984550 0.269446 14.604536 -18.868539 -0.871713 4.396194 57.563679 -0.127776 -7.722372 1.409341 -0.906700 -0.000000 -71.162700 8.060904 1.989993 -5.118891 22.711220 -6.589525 -63.779744 1.310343 -5.435471 61.393886 -5.031496 -15.615940 -30.102757 -174.221800 -0.000000 -19.999200 8.114932 -3.092888 14.575996 0.776734 -2.938983 -0.666660 -5.933177 -2.904347 -3.121355 7.375145 -7.976288 -4.776784 -3.853466 -0.282424 0.315598 0.000000 0.000000 0.000000 7.297778 0.153741 1.808982 -55.946728 5.252554 -0.488186 -178.832667 -68.804097 179.977872 3.035139 1.652790 0.035183 -0.098100 0.409234 0.000000 0.000000 0.000000 0.000000 0.000000 0.000000 0.000000 10.278436 -3.962620 0.780619 73.005210 -9.924802 7.360273 179.934880 84.772946 179.948232 -8.852918 3.849754 -0.332147 0.110663 -0.400498 -0.000000 0.000000 0.000000 0.000000 0.000000 0.000000 0.000000 
-1.188313 15.403852 -1.073809 19.504620 77.620501 41.991164 -12.199402 2.333999 -5.833309 0.449338 13.564623 -18.606351 -0.658534 4.476202 58.791832 -0.060768 -7.274914 2.219603 -0.994500 -0.000001 -68.032100 8.143519 2.010358 -5.268522 22.604950 -6.639538 -62.868430 1.234159 -5.445962 62.400748 -5.077913 -15.746252 -31.172807 -173.814900 -0.000000 -19.542000 8.322178 -3.132954 14.611536 0.823778 -2.974872 -0.681459 -5.914489 -2.943942 -3.174893 7.562777 -7.694430 -4.639951 -3.892078 -0.286109 0.356736 0.000000 0.000000 0.000000 7.256152 -0.094322 1.822123 -57.303986 7.152711 0.262410 -178.926943 -69.546023 179.982537 2.541958 1.412157 0.024171 -0.073195 0.401429 0.000000 0.000000 0.000000 0.000000 0.000000 0.000000 0.000000 10.741372 -3.755592 0.753579 72.576403 -8.413402 7.266636 179.950321 85.804579 179.944081 -9.733018 3.065295 -0.296745 0.130494 -0.386191 -0.000000 0.000000 0.000000 0.000000 0.000000 0.000000 0.000000 
-1.021461 15.381176 -1.014340 18.837876 77.296930 41.051089 -12.182125 2.388221 -5.678119 0.481651 12.517931 -18.537481 -0.454547 4.553691 60.106488 0.006128 -6.730836 2.810012 -1.027300 -0.000001 -64.535300 8.229968 2.021208 -5.384362 22.463874 -6.684698 -61.979952 1.174751 -5.447556 63.257999 -5.124845 -15.848016 -32.221175 -173.425200 0.000000 -19.157000 8.459487 -3.161678 14.598751 0.854537 -3.001375 -0.696951 -5.904627 -2.973069 -3.201197 7.767701 -7.492542 -4.536994 -3.914453 -0.288521 0.389504 0.000000 0.000000 0.000000 7.209556 -0.296883 1.823136 -58.584591 8.964490 1.046538 -179.030307 -70.473742 179.986022 2.167587 1.222146 0.017070 -0.052113 0.391532 -0.000000 0.000000 0.000000 0.000000 0.000000 0.000000 0.000000 11.178317 -3.622097 0.719182 72.185561 -6.904833 7.208112 179.965938 86.740769 179.939450 -10.648968 2.236564 -0.245448 0.150346 -0.372088 -0.000000 0.000000 0.000000 0.000000 0.000000 0.000000 0.000000 
-0.856580 15.361936 -0.952883 18.429656 76.945918 40.421548 -12.160189 2.431098 -5.526149 0.386952 11.512887 -18.657386 -0.261567 4.628250 61.485827 0.071370 -6.105218 3.177199 -1.008100 -0.000000 -61.054800 8.319451 2.025428 -5.468573 22.284391 -6.726518 -61.125618 1.127571 -5.442484 63.990517 -5.171520 -15.929532 -33.227494 -173.057700 0.000000 -18.928600 8.531212 -3.176640 14.546752 0.870252 -3.015681 -0.712881 -5.902397 -2.989146 -3.206196 7.978674 -7.355011 -4.465635 -3.920047 -0.289658 0.414226 0.000000 0.000000 0.000000 7.154234 -0.452720 1.817655 -59.774679 10.687833 1.864043 -179.137610 -71.570155 179.988417 1.914914 1.085629 0.012885 -0.035256 0.379622 -0.000000 0.000000 0.000000 0.000000 0.000000 0.000000 0.000000 11.565868 -3.538454 0.677993 71.849708 -5.430533 7.171297 179.980285 87.541440 179.934612 -11.542900 1.422899 -0.181653 0.169176 -0.359245 0.000000 0.000000 0.000000 0.000000 0.000000 0.000000 0.000000 
-0.693757 15.346287 -0.890077 18.192590 76.568129 40.018327 -12.137888 2.459810 -5.381737 0.198551 10.589916 -18.968143 -0.080332 4.700181 62.909892 0.134395 -5.412501 3.327941 -0.944099 -0.000000 -57.864000 8.408837 2.022730 -5.522387 22.081278 -6.759015 -60.316072 1.089639 -5.431534 64.611720 -5.217364 -15.998083 -34.168060 -172.717800 -0.000000 -18.864700 8.554787 -3.175812 14.461319 0.875047 -3.015602 -0.729911 -5.905502 -2.990379 -3.196035 8.183251 -7.259825 -4.421448 -3.908311 -0.289521 0.431863 0.000000 0.000000 0.000000 7.081567 -0.558358 1.812205 -60.866180 12.326898 2.712818 -179.244456 -72.819597 179.989891 1.776805 0.999366 0.010716 -0.022648 0.365965 -0.000000 0.000000 0.000000 0.000000 0.000000 0.000000 0.000000 11.879029 -3.475852 0.629924 71.578873 -4.016809 7.145225 179.992229 88.178086 179.929898 -12.357288 0.686995 -0.112660 0.186074 -0.348676 0.000000 0.000000 0.000000 0.000000 0.000000 0.000000 0.000000 
-0.533315 15.334291 -0.826290 18.096835 76.154667 39.800791 -12.114846 2.474113 -5.253237 -0.069288 9.780119 -19.447044 0.087673 4.769733 64.357402 0.194033 -4.665338 3.248589 -0.841800 0.000000 -54.712500 8.500360 2.016276 -5.553944 21.850484 -6.798844 -59.552285 1.059351 -5.417979 65.143479 -5.256706 -16.039088 -35.029098 -172.415700 -0.000000 -18.940300 8.530109 -3.159663 14.361347 0.869332 -3.000520 -0.743786 -5.911640 -2.976064 -3.168969 8.376097 -7.212714 -4.407841 -3.879100 -0.288016 0.440893 0.000000 0.000000 0.000000 6.991102 -0.599340 1.809520 -61.850556 13.868854 3.599973 -179.347615 -74.206754 179.990654 1.738767 0.971645 0.010265 -0.013982 0.350544 -0.000000 0.000000 0.000000 0.000000 0.000000 0.000000 0.000000 12.107958 -3.438878 0.574283 71.370820 -2.645119 7.147046 -179.999042 88.644214 179.925488 -13.050910 0.069530 -0.046569 0.200621 -0.340938 0.000000 0.000000 0.000000 0.000000 0.000000 0.000000 0.000000 
-0.375378 15.326205 -0.762273 18.025179 75.711420 39.658241 -12.094440 2.470507 -5.140003 -0.376865 9.101263 -20.096169 0.243350 4.836428 65.796385 0.253524 -3.863746 2.997607 -0.715300 0.000000 -52.256500 8.588744 2.002654 -5.564746 21.623433 -6.835925 -58.838088 1.036800 -5.400829 65.583279 -5.288997 -16.051902 -35.796088 -172.156700 -0.000000 -19.096601 8.483376 -3.127551 14.248678 0.858910 -2.969971 -0.758437 -5.918296 -2.946496 -3.139513 8.546293 -7.163299 -4.407348 -3.833442 -0.285365 0.446113 0.000000 0.000000 0.000000 6.872595 -0.594188 1.817758 -62.730772 15.348001 4.507661 -179.444699 -75.700349 179.990934 1.779130 0.985199 0.010926 -0.008620 0.333999 -0.000000 0.000000 0.000000 0.000000 0.000000 0.000000 0.000000 12.233685 -3.371995 0.512387 71.228616 -1.361216 7.147089 -179.993952 88.926778 179.921765 -13.573264 -0.376275 0.005921 0.211965 -0.336858 0.000000 0.000000 0.000000 0.000000 0.000000 0.000000 0.000000 
-0.220088 15.322118 -0.698419 17.923877 75.236935 39.532489 -12.076487 2.448206 -5.045176 -0.703516 8.562764 -20.899565 0.385921 4.900897 67.205249 0.313711 -3.013304 2.583289 -0.573400 0.000000 -50.274000 8.672965 1.981499 -5.561265 21.412934 -6.878065 -58.169202 1.023146 -5.381046 65.935735 -5.310071 -16.018484 -36.465794 -171.949000 0.000000 -19.264700 8.423454 -3.080857 14.135120 0.846048 -2.924796 -0.771613 -5.923018 -2.902601 -3.107450 8.690669 -7.106239 -4.417967 -3.771990 -0.281582 0.447727 0.000000 0.000000 0.000000 6.723431 -0.535397 1.838865 -63.508160 16.763244 5.435939 -179.534853 -77.286889 179.990944 1.873485 1.036662 0.012501 -0.005871 0.316562 -0.000000 0.000000 0.000000 0.000000 0.000000 0.000000 0.000000 12.252930 -3.271999 0.443605 71.141781 -0.148090 7.157894 -179.992570 89.040793 179.918898 -13.901902 -0.630861 0.037510 0.219909 -0.336622 -0.000000 0.000000 0.000000 0.000000 0.000000 0.000000 0.000000 
